<svg width="150" height="150" viewBox="0 0 150 150" fill="none" xmlns="http://www.w3.org/2000/svg">
<g clip-path="url(#clip0_250_2)">
<path d="M34.5801 57.808H51.5241L54.8841 64H34.1481C30.4041 64 27.3801 61.168 27.3801 57.712V28.384H34.5801V57.808ZM80.3653 59.248H64.7653L68.6053 53.056H78.2053L72.1093 35.584L62.1733 64H54.4933L64.9573 34.192C66.2053 30.64 68.3653 27.904 72.1093 27.904C75.8533 27.904 78.0133 30.64 79.2613 34.192L89.7253 64H82.0453L80.3653 59.248ZM118.234 45.664C121.882 47.584 123.706 50.752 123.706 53.968C123.706 59.008 119.194 64 110.17 64H93.7059V34.672C93.7059 31.216 96.7299 28.384 100.474 28.384H110.17C117.898 28.384 121.786 33.328 121.786 38.272C121.786 41.008 120.586 43.744 118.234 45.664ZM105.226 42.928H110.17C113.242 42.928 114.778 40.816 114.778 38.752C114.778 36.64 113.242 34.576 110.17 34.576H100.906V57.808H110.17C114.538 57.808 116.698 55.648 116.698 53.488C116.698 51.328 114.538 49.12 110.17 49.12H101.386L105.226 42.928ZM23.4696 78.144C27.2136 78.144 29.1336 80.976 30.6216 84.432L40.6056 107.952V78.384H47.8056V107.952C47.8056 111.408 44.3016 114.24 40.5576 114.24C36.8136 114.24 34.8936 111.408 33.4056 107.952L23.4216 84.432V114H16.2216V84.432C16.2216 80.976 19.7256 78.144 23.4696 78.144ZM71.6076 114.48H66.8076C59.2236 114.48 53.0316 108.432 53.0316 100.944V91.44C53.0316 83.952 59.2236 77.904 66.8076 77.904H71.6076C79.1916 77.904 85.3836 83.952 85.3836 91.44V100.944C85.3836 108.432 79.1916 114.48 71.6076 114.48ZM66.8076 108.288H71.6076C75.2556 108.288 78.1836 104.976 78.1836 100.944V91.44C78.1836 87.408 75.2556 84.096 71.6076 84.096H66.8076C63.1596 84.096 60.2316 87.408 60.2316 91.44V100.944C60.2316 104.976 63.1596 108.288 66.8076 108.288ZM100.585 106.656L108.553 83.568H116.137L124.105 106.656L126.841 78.384H134.521L131.257 108.048C130.777 112.176 127.657 114.24 124.633 114.24C122.281 114.24 119.977 112.992 119.017 110.448L112.345 90.96L105.673 110.448C104.713 112.992 102.409 114.24 100.057 114.24C97.0329 114.24 93.9129 112.176 93.4329 108.048L90.1689 78.384H97.8489L100.585 106.656Z" fill="#0F62FE"/>
</g>
<defs>
<clipPath id="clip0_250_2">
<rect width="150" height="150" fill="white"/>
</clipPath>
</defs>
</svg>
